<mxfile host="Electron" modified="2025-05-20T19:17:51.851Z" agent="Mozilla/5.0 (Windows NT 10.0; Win64; x64) AppleWebKit/537.36 (KHTML, like Gecko) draw.io/24.1.0 Chrome/120.0.6099.109 Electron/28.1.0 Safari/537.36" version="24.1.0" etag="YRFb3eP27jCRL6Kq0DY7" type="device">
  <diagram id="zqtmustm1WDeSPgfxmpH" name="Iphone">
    <mxGraphModel dx="19380" dy="13531" grid="1" gridSize="10" guides="1" tooltips="1" connect="1" arrows="1" fold="1" page="1" pageScale="1" pageWidth="850" pageHeight="1100" math="0" shadow="0">
      <root>
        <mxCell id="0" />
        <mxCell id="1" parent="0" />
        <mxCell id="2" value="iPhone" style="shape=rectangle" parent="1" vertex="1">
          <mxGeometry x="50" y="50" width="100" height="50" as="geometry" />
        </mxCell>
        <mxCell id="3" value="MusicPlayer" style="shape=rectangle" parent="1" vertex="1">
          <mxGeometry x="200" y="50" width="100" height="50" as="geometry" />
        </mxCell>
        <mxCell id="4" value="Phone" style="shape=rectangle" parent="1" vertex="1">
          <mxGeometry x="200" y="150" width="100" height="50" as="geometry" />
        </mxCell>
        <mxCell id="5" value="InternetBrowser" style="shape=rectangle" parent="1" vertex="1">
          <mxGeometry x="200" y="250" width="100" height="50" as="geometry" />
        </mxCell>
        <mxCell id="6" parent="1" source="2" target="3" edge="1" />
        <mxCell id="7" parent="1" source="2" target="4" edge="1" />
        <mxCell id="8" parent="1" source="2" target="5" edge="1" />
      </root>
    </mxGraphModel>
  </diagram>
</mxfile>
